<svg xmlns="http://www.w3.org/2000/svg"  viewBox="0 0 32 32" width="32px" height="32px" baseProfile="basic"><linearGradient id="GRNlqpjCnLGW3Kg2XPGAga" x1="16" x2="16" y1="4.905" y2="27.01" gradientUnits="userSpaceOnUse"><stop offset="0" stop-color="#00b5f0"/><stop offset="1" stop-color="#008cc7"/></linearGradient><path fill="url(#GRNlqpjCnLGW3Kg2XPGAga)" d="M26,27H6c-1.105,0-2-0.895-2-2V7c0-1.105,0.895-2,2-2h4.027c0.623,0,1.22,0.247,1.66,0.688 l0.624,0.624C12.753,6.753,13.35,7,13.973,7H26c1.105,0,2,0.895,2,2v16C28,26.105,27.105,27,26,27z"/><linearGradient id="GRNlqpjCnLGW3Kg2XPGAgb" x1="16" x2="16" y1="5" y2="27" gradientUnits="userSpaceOnUse"><stop offset="0" stop-opacity=".02"/><stop offset="1" stop-opacity=".15"/></linearGradient><path fill="url(#GRNlqpjCnLGW3Kg2XPGAgb)" d="M10.027,5.5 c0.494,0,0.958,0.192,1.307,0.541l0.624,0.624C12.497,7.204,13.212,7.5,13.973,7.5H26c0.827,0,1.5,0.673,1.5,1.5v16 c0,0.827-0.673,1.5-1.5,1.5H6c-0.827,0-1.5-0.673-1.5-1.5V7c0-0.827,0.673-1.5,1.5-1.5H10.027 M10.027,5H6C4.895,5,4,5.895,4,7v18 c0,1.105,0.895,2,2,2h20c1.105,0,2-0.895,2-2V9c0-1.105-0.895-2-2-2H13.973c-0.623,0-1.22-0.247-1.66-0.688l-0.625-0.625 C11.247,5.247,10.65,5,10.027,5L10.027,5z"/><g><linearGradient id="GRNlqpjCnLGW3Kg2XPGAgc" x1="16" x2="16" y1="8.922" y2="27.008" gradientUnits="userSpaceOnUse"><stop offset="0" stop-color="#00dcff"/><stop offset=".859" stop-color="#00bfff"/><stop offset="1" stop-color="#00a8e0"/></linearGradient><path fill="url(#GRNlqpjCnLGW3Kg2XPGAgc)" d="M27,27H5c-1.105,0-2-0.895-2-2V11 c0-1.105,0.895-2,2-2h22c1.105,0,2,0.895,2,2v14C29,26.105,28.105,27,27,27z"/><linearGradient id="GRNlqpjCnLGW3Kg2XPGAgd" x1="16" x2="16" y1="9" y2="27" gradientUnits="userSpaceOnUse"><stop offset="0" stop-opacity=".02"/><stop offset="1" stop-opacity=".15"/></linearGradient><path fill="url(#GRNlqpjCnLGW3Kg2XPGAgd)" d="M27,9.5c0.827,0,1.5,0.673,1.5,1.5v14 c0,0.827-0.673,1.5-1.5,1.5H5c-0.827,0-1.5-0.673-1.5-1.5V11c0-0.827,0.673-1.5,1.5-1.5H27 M27,9H5c-1.105,0-2,0.895-2,2v14 c0,1.105,0.895,2,2,2h22c1.105,0,2-0.895,2-2V11C29,9.895,28.105,9,27,9L27,9z"/></g></svg>